<?xml version="1.0" encoding="utf-8"?>
<!-- Generator: Adobe Illustrator 26.5.0, SVG Export Plug-In . SVG Version: 6.00 Build 0)  -->
<svg version="1.1" id="Layer_1" xmlns="http://www.w3.org/2000/svg" xmlns:xlink="http://www.w3.org/1999/xlink" x="0px" y="0px"
	 viewBox="0 0 151 200" style="enable-background:new 0 0 151 200;" xml:space="preserve">
<style type="text/css">
	.st0{fill:none;}
	.st1{fill:#FDFDFD;}
</style>
<g>
	<path class="st0" d="M45.45,103.25c0-9.43,0.01-18.86-0.02-28.29c0-0.78,0.16-0.94,0.98-0.94c19.4,0.03,38.79,0.03,58.19,0
		c0.81,0,0.98,0.16,0.98,0.94c-0.03,18.86-0.03,37.72,0,56.58c0,0.78-0.16,0.94-0.98,0.94c-19.4-0.03-38.79-0.03-58.19,0
		c-0.81,0-0.98-0.16-0.98-0.94C45.46,122.12,45.45,112.68,45.45,103.25z"/>
	<path d="M75.32,131.6c-16.11-0.16-29.15-12.84-28.97-28.17C46.53,88,59.79,75.48,75.76,75.69c16.12,0.21,29.13,12.92,28.9,28.23
		C104.42,119.32,91.24,131.76,75.32,131.6z"/>
	<path class="st1" d="M80.26,100.83c2.14,0,4.28-0.01,6.42,0c2.09,0.02,3.36,1.1,3.36,2.82c-0.01,1.72-1.28,2.8-3.37,2.81
		c-4.32,0.02-8.65,0.03-12.97-0.01c-0.89-0.01-1.22,0.2-1.15,1.08c0.08,0.95,0.02,1.92,0.01,2.88c-0.02,0.98-0.53,1.66-1.46,2.01
		c-0.88,0.33-1.73,0.2-2.41-0.44c-2.4-2.27-4.79-4.54-7.13-6.86c-0.87-0.86-0.87-2.09,0.01-2.95c2.34-2.32,4.74-4.59,7.14-6.86
		c0.67-0.64,1.53-0.76,2.41-0.43c0.93,0.36,1.43,1.05,1.45,2.02c0.02,0.96,0.08,1.93-0.01,2.88c-0.08,0.91,0.3,1.09,1.16,1.07
		C75.89,100.79,78.08,100.83,80.26,100.83z"/>
</g>
</svg>
